<?xml version="1.0" standalone="no"?>
<!DOCTYPE svg PUBLIC "-//W3C//DTD SVG 20010904//EN"
 "http://www.w3.org/TR/2001/REC-SVG-20010904/DTD/svg10.dtd">
<svg version="1.0" xmlns="http://www.w3.org/2000/svg"
 width="2500.000000pt" height="2500.000000pt" viewBox="0 0 2500.000000 2500.000000"
 preserveAspectRatio="xMidYMid meet">
<g transform="translate(0.000000,2500.000000) scale(0.100000,-0.100000)"
fill="#000000" stroke="none">
<path d="M8415 19250 c-137 -28 -195 -59 -329 -174 -106 -91 -506 -571 -725
-870 -595 -813 -1138 -1867 -1555 -3020 -245 -676 -458 -1479 -541 -2041 -9
-60 -27 -180 -40 -265 -162 -1024 -95 -1923 215 -2850 262 -788 678 -1534
1186 -2130 129 -152 482 -504 617 -616 723 -597 1549 -967 2757 -1233 74 -16
155 -37 179 -45 63 -23 738 -134 1131 -186 885 -117 1495 -117 2380 0 393 52
1068 163 1131 186 24 8 105 29 179 45 1208 266 2034 636 2757 1233 135 112
488 464 617 616 714 837 1234 1956 1415 3045 99 596 94 1252 -14 1935 -13 85
-31 205 -40 265 -102 693 -374 1647 -705 2474 -167 418 -299 712 -505 1121
-419 830 -815 1426 -1405 2115 -179 208 -290 307 -400 356 -55 25 -223 59
-291 59 -70 0 -240 -37 -330 -71 -257 -99 -517 -400 -861 -998 -115 -201 -296
-562 -381 -763 -72 -170 -179 -459 -222 -603 -33 -106 -86 -185 -146 -216 -23
-11 -71 -27 -108 -35 -74 -15 -123 -11 -386 31 -463 76 -1002 115 -1570 115
-546 0 -998 -38 -1560 -130 -170 -28 -184 -29 -246 -16 -37 8 -85 24 -108 35
-60 31 -113 110 -146 216 -191 629 -600 1443 -975 1940 -223 295 -396 418
-667 474 -122 25 -188 25 -308 1z m1586 -5058 c287 -76 520 -265 649 -527 142
-287 142 -593 0 -880 -131 -266 -372 -458 -666 -532 -51 -13 -111 -17 -224
-17 -113 0 -173 4 -224 17 -294 74 -535 266 -666 532 -142 287 -142 593 0 880
140 283 401 481 713 541 102 19 319 12 418 -14z m5434 9 c302 -63 550 -249
687 -517 82 -160 111 -282 111 -459 0 -177 -29 -299 -111 -459 -262 -512 -913
-691 -1407 -387 -230 141 -390 370 -452 646 -33 149 -18 373 36 529 114 327
396 573 741 647 115 24 279 24 395 0z m-3788 -3182 c54 -20 85 -48 455 -417
l398 -397 397 396 c375 374 401 398 458 419 78 28 168 25 240 -10 75 -36 148
-115 169 -185 24 -75 18 -182 -13 -245 -16 -31 -177 -200 -529 -553 -587 -588
-562 -569 -722 -569 -156 0 -130 -21 -712 560 -333 332 -515 521 -532 551 -49
92 -47 222 7 312 80 133 240 191 384 138z"/>
</g>
</svg>
